<svg xmlns="http://www.w3.org/2000/svg" viewBox="0 0 276.04 137.5">
  <defs>
    <style>
      .cls-1, .cls-2 {
        fill: #fff;
      }

      .cls-1 {
        fill-rule: evenodd;
      }
    </style>
  </defs>
  <g id="Capa_2" data-name="Capa 2">
    <g id="Capa_1-2" data-name="Capa 1">
      <g>
        <path class="cls-1" d="M4.41,54.43l6.34-11,6.34-11H42.45l6.34,11,6.34,11-6.34,11-6.34,11H17.09l-6.34-11ZM0,54.43,7.44,41.54l7.44-12.9H44.65l7.45,12.9,7.44,12.89L52.1,67.32,44.65,80.21H14.88L7.44,67.32Z"/>
        <path class="cls-1" d="M54,25.78l6.34-11,6.34-11H92.06l6.34,11,6.34,11-6.34,11-6.34,11H66.71l-6.34-11Zm-4.41,0,7.44-12.89L64.5,0H94.27l7.44,12.89,7.44,12.89-7.44,12.89L94.27,51.56H64.5L57.06,38.67Z"/>
        <path class="cls-1" d="M4.41,111.72l6.34-11,6.34-11H42.45l6.34,11,6.34,11-6.34,11-6.34,11H17.09l-6.34-11Zm-4.41,0L7.44,98.83l7.44-12.89H44.65L52.1,98.83l7.44,12.89L52.1,124.61,44.65,137.5H14.88L7.44,124.61Z"/>
        <path class="cls-2" d="M276,91.54a5.12,5.12,0,0,1-2,4.29,5.67,5.67,0,0,1-3.62,1.36V74.61H233.6V97.19a5.18,5.18,0,0,1-4.31-2,5.7,5.7,0,0,1-1.35-3.62V74.6A5.17,5.17,0,0,1,230,70.31,5.83,5.83,0,0,1,233.6,69h36.78a5.16,5.16,0,0,1,4.3,2A5.63,5.63,0,0,1,276,74.6Zm-53.76,5.65h-5.66V69h5.66ZM211,91.54a5.62,5.62,0,0,1-1.3,3.56,5.29,5.29,0,0,1-4.36,2.09H168.52a5.76,5.76,0,0,1-3.57-1.3,5.22,5.22,0,0,1-2.09-4.35V74.6a5.54,5.54,0,0,1,1.3-3.55,5.24,5.24,0,0,1,4.36-2.1V91.53h15.56V69h5.66V91.53H205.3V69a5.65,5.65,0,0,1,3.56,1.3A5.24,5.24,0,0,1,211,74.6Zm-59.42,0V74.61H114.75V91.53Zm5.66,0a5.15,5.15,0,0,1-2.1,4.29,5.75,5.75,0,0,1-3.56,1.36H114.75a5.18,5.18,0,0,1-4.3-2,5.71,5.71,0,0,1-1.36-3.62V74.6a5.19,5.19,0,0,1,2-4.35,5.74,5.74,0,0,1,3.62-1.3h36.79a5.16,5.16,0,0,1,4.3,2,5.68,5.68,0,0,1,1.36,3.61Zm-53.76,0a5.12,5.12,0,0,1-2,4.29,5.67,5.67,0,0,1-3.62,1.36V74.61H82.21V97.19H76.56V74.61H61V97.19a5.18,5.18,0,0,1-4.3-2,5.71,5.71,0,0,1-1.36-3.62V74.6a5.18,5.18,0,0,1,2.1-4.29A5.83,5.83,0,0,1,61,69H97.78a5.16,5.16,0,0,1,4.3,2,5.68,5.68,0,0,1,1.36,3.61Z"/>
      </g>
    </g>
  </g>
</svg>
